<?xml version="1.0" standalone="no"?>
<!DOCTYPE svg PUBLIC "-//W3C//DTD SVG 1.1//EN" "http://www.w3.org/Graphics/SVG/1.1/DTD/svg11.dtd" >
<svg xmlns="http://www.w3.org/2000/svg">
<metadata>
Created by FontForge 20120731 at Fri May 26 09:11:44 2017
 By admin
</metadata>
<defs>
<font id="iconfont" horiz-adv-x="1024" >
  <font-face 
    font-family="iconfont"
    font-weight="500"
    font-stretch="normal"
    units-per-em="1024"
    panose-1="2 0 6 3 0 0 0 0 0 0"
    ascent="896"
    descent="-128"
    x-height="792"
    bbox="0 -168 1056.79 896"
    underline-thickness="0"
    underline-position="0"
    unicode-range="U+0078-F0012"
  />
<missing-glyph 
 />
    <glyph glyph-name=".notdef" 
 />
    <glyph glyph-name=".null" horiz-adv-x="0" 
 />
    <glyph glyph-name="nonmarkingreturn" horiz-adv-x="341" 
 />
    <glyph glyph-name="x" unicode="x" horiz-adv-x="1001" 
d="M281 543q-27 -1 -53 -1h-83q-18 0 -36.5 -6t-32.5 -18.5t-23 -32t-9 -45.5v-76h912v41q0 16 -0.5 30t-0.5 18q0 13 -5 29t-17 29.5t-31.5 22.5t-49.5 9h-133v-97h-438v97zM955 310v-52q0 -23 0.5 -52t0.5 -58t-10.5 -47.5t-26 -30t-33 -16t-31.5 -4.5q-14 -1 -29.5 -0.5
t-29.5 0.5h-32l-45 128h-439l-44 -128h-29h-34q-20 0 -45 1q-25 0 -41 9.5t-25.5 23t-13.5 29.5t-4 30v167h911zM163 247q-12 0 -21 -8.5t-9 -21.5t9 -21.5t21 -8.5q13 0 22 8.5t9 21.5t-9 21.5t-22 8.5zM316 123q-8 -26 -14 -48q-5 -19 -10.5 -37t-7.5 -25t-3 -15t1 -14.5
t9.5 -10.5t21.5 -4h37h67h81h80h64h36q23 0 34 12t2 38q-5 13 -9.5 30.5t-9.5 34.5q-5 19 -11 39h-368zM336 498v228q0 11 2.5 23t10 21.5t20.5 15.5t34 6h188q31 0 51.5 -14.5t20.5 -52.5v-227h-327z" />
    <glyph glyph-name="shezhi" unicode="&#xf0012;" 
d="M960 204l-122 -40l56 -111l-134 -134l-111 56l-39 -123h-190l-39 123l-111 -56l-134 134l55 111l-126 40v190l126 39l-55 111l134 135l111 -56l39 125h190l39 -125l111 56l134 -135l-56 -111l122 -39v-190zM515.5 541q-98.5 0 -168 -70t-69.5 -169t69.5 -168.5t168 -69.5
t168 69.5t69.5 168.5t-69.5 169t-168 70zM515.5 195q-44.5 0 -75.5 31.5t-31 75.5t31 75.5t75.5 31.5t75.5 -31.5t31 -75.5t-31 -75.5t-75.5 -31.5z" />
    <glyph glyph-name="huancun" unicode="&#xf0005;" 
d="M96 -112h833v-56h-833v56zM873 361h-187v415h-348v-415h-186l360 -418z" />
    <glyph glyph-name="94" unicode="&#xe67e;" 
d="M906 -53q-23 0 -43 5.5t-39.5 20t-31 25.5t-32.5 33q-31 33 -50 49q-55 49 -142 49h-24h-21h-22h-21h-24q-87 0 -142 -49q-19 -16 -50 -49q-21 -22 -32.5 -33t-31 -25.5t-39.5 -20t-43 -5.5q-39 0 -63 27q-63 70 -33 338q10 90 35 158.5t59.5 107t71.5 57t76 18.5
q16 0 32.5 -4.5t26 -9.5t26.5 -16q24 -14 39.5 -21.5t49.5 -15.5t74 -8t74 8t49.5 15.5t39.5 21.5q17 11 26.5 16t26 9.5t32.5 4.5q39 0 76 -18.5t71.5 -57t59.5 -107t35 -158.5q30 -268 -33 -338q-24 -27 -63 -27zM568 162q100 0 164 -58q19 -17 51 -51q27 -27 40.5 -39.5
t36 -23.5t46.5 -11t39 17q53 59 25 312q-9 83 -31 146t-52 98t-61.5 52t-65.5 17q-26 0 -69 -25q-25 -16 -42 -24t-55 -17t-82 -9t-82 9t-55 17t-42 24q-43 25 -69 25q-34 0 -65.5 -17t-61.5 -52t-52 -98t-31 -146q-28 -253 25 -312q15 -17 39 -17t46.5 11t36 23.5
t40.5 39.5q32 34 51 51q24 21 49 34t51.5 17.5t44 5.5t44.5 0h20h22h20q16 1 25 1zM812 447q0 -20 -14.5 -34.5t-34.5 -14.5t-34 14.5t-14 34.5t14 34t34 14t34.5 -14t14.5 -34zM812 253q0 -20 -14.5 -34t-34.5 -14t-34 14t-14 34t14 34.5t34 14.5t34.5 -14.5t14.5 -34.5z
M860 302q-20 0 -34 14t-14 34t14 34t34 14t34 -14t14 -34t-14 -34t-34 -14zM667 302q-20 0 -34.5 14t-14.5 34t14.5 34t34.5 14t34 -14t14 -34t-14 -34t-34 -14zM387 382h-81v81q0 13 -9.5 22.5t-22.5 9.5t-22.5 -9.5t-9.5 -22.5v-81h-81q-13 0 -22.5 -9.5t-9.5 -22.5
t9.5 -22.5t22.5 -9.5h81v-81q0 -13 9.5 -22.5t22.5 -9.5t22.5 9.5t9.5 22.5v81h81q13 0 22.5 9.5t9.5 22.5t-9.5 22.5t-22.5 9.5z" />
    <glyph glyph-name="qianbao" unicode="&#xe637;" 
d="M799 -88h-639q-40 0 -68 28t-28 68v578q0 40 28 68t68 28h642q40 0 68 -28t28 -68v-94q0 -13 -9 -22.5t-22.5 -9.5t-23 9.5t-9.5 22.5v94q0 13 -9 22.5t-23 9.5h-642q-13 0 -22.5 -9.5t-9.5 -22.5v-578q0 -14 9.5 -23t22.5 -9h639q14 0 23 9t9 23v98q0 14 9.5 23t23 9
t22.5 -9t9 -23v-98q0 -40 -28 -68t-68 -28zM630 298q0 13 9 22t22 9t22.5 -9t9.5 -22t-9.5 -22t-22.5 -9t-22 9t-9 22v0zM896 172h-320q-26 0 -45 19t-19 45v128q0 26 19 45t45 19h320q26 0 45 -19t19 -45v-128q0 -26 -19 -45t-45 -19zM576 364v-128h320v128h-320z" />
    <glyph glyph-name="lishijilu" unicode="&#xe64a;" 
d="M522 527h-35q-12 0 -20 -8t-8 -20v-237q0 -11 8 -19t20 -8h194q12 0 20 8t8 19v35q0 11 -8 19t-20 8h-131v175q0 12 -8.5 20t-19.5 8zM518 732q-109 0 -202.5 -50t-152.5 -135v81q0 11 -8 19t-20 8h-32q-11 0 -19.5 -8t-8.5 -19v-201q0 -12 8.5 -20t19.5 -8h204
q12 0 20 8t8 20v28q0 12 -8 20t-20 8h-101q46 81 128.5 129.5t179.5 48.5q96 0 177.5 -47t128.5 -127t47 -174.5t-47 -174.5t-128.5 -126.5t-177.5 -46.5q-128 0 -226 80.5t-121 202.5l-71 -14q27 -149 146 -248t276 -99q116 0 215 56.5t156 153.5t57 212t-57 212.5
t-156 154t-215 56.5z" />
    <glyph glyph-name="21416" unicode="&#xe62e;" horiz-adv-x="1025" 
d="M1024 425q-1 32 -6 65.5t-17 77.5t-36 89t-59 83q-133 147 -394 148q-261 -1 -394 -148q-34 -38 -58.5 -83t-36.5 -89t-17 -77.5t-6 -65.5q0 -16 0.5 -53.5t0.5 -45.5v-388q0 -21 7.5 -35.5t17.5 -14.5q5 0 11 3q8 4 14 -1q13 -10 25 -10h96q2 1 4.5 1.5t9 4.5t11.5 9.5
t9 16.5t4 25v292q1 2 1.5 5.5t-0.5 12t-4 15t-12 11.5t-23 5h-96q-7 0 -15 -2v102v1q-1 12 -1.5 27.5t2.5 56t12 77.5t31 83.5t55 83.5q118 130 352 131q234 -1 352 -131q33 -37 55 -83.5t31 -83.5t12 -77.5t2.5 -56t-1.5 -27.5v-1v-102q-8 2 -15 2h-96q-22 0 -31.5 -12
t-8.5 -25l2 -12v-292q0 -45 35 -56l3 -1h96q12 0 24 10q8 5 15 1q6 -3 11 -3q10 0 17.5 14.5t7.5 35.5v388q0 8 0.5 45.5t0.5 53.5z" />
    <glyph glyph-name="huiyuan" unicode="&#xe615;" 
d="M67 768h255v-64h-255v64zM131 710h191v-710h-191v710zM959 768l-637 -768l-186 180l503 588h320z" />
    <glyph glyph-name="tubiaoyueliang" unicode="&#xe799;" 
d="M486 81q-75 0 -142 36q-64 35 -106 95q-6 9 0 18.5t18 7.5q23 -5 46 -5q100 0 170 70t70 169q0 53 -22 100.5t-62 81.5q-9 7 -5.5 18t15.5 11q10 1 18 1q62 0 118 -24q54 -23 95.5 -64.5t64.5 -95.5q24 -56 24 -117.5t-24 -117.5q-23 -54 -64.5 -95.5t-95.5 -64.5
q-56 -24 -118 -24v0zM291 200q30 -33 69 -53q59 -32 126 -32q111 0 189.5 78.5t78.5 189.5t-78 189q-69 69 -167 78q66 -77 66 -178q0 -113 -80 -192.5t-193 -79.5h-11v0zM291 200z" />
    <glyph glyph-name="wodeshoucang" unicode="&#xe635;" 
d="M956 491q-6 19 -25 22l-269 41l-120 258q-9 18 -29 18v0q-20 0 -29 -18l-121 -257l-270 -41q-19 -3 -25.5 -21t7.5 -32l196 -202l-47 -283q-4 -20 12.5 -31.5t34.5 -1.5l240 132l241 -133q7 -4 15 -4h1q13 0 22.5 9.5t9.5 22.5q0 6 -2 11l-45 278l196 200q14 14 7 32v0z
" />
    <glyph glyph-name="weibiaoti1" unicode="&#xe6a1;" 
d="M853 896h-682q-71 0 -121 -50t-50 -121v-682q0 -71 50 -121t121 -50h682q71 0 121 50t50 121v682q0 71 -50 121t-121 50zM725 307l-264 -170q-39 -26 -79.5 -0.5t-40.5 76.5v342q0 50 41 73t87 3l265 -170q25 -17 34 -47t-2.5 -60t-40.5 -47z" />
    <glyph glyph-name="shouyeshouye" unicode="&#xe6ee;" 
d="M877 379l-365 342l-365 -341q-5 -5 -5.5 -12.5t4.5 -12.5t12.5 -5.5t12.5 4.5l341 318l341 -319q5 -5 12 -5q8 0 13 6q5 5 4.5 12.5t-5.5 12.5zM765.5 372q-7.5 0 -12.5 -5t-5 -13v-271h-142v189h-188v-189h-142v271q0 8 -5 13t-12.5 5t-12.5 -5t-5 -13v-307h212v189h118
v-189h212v307q0 8 -5 13t-12.5 5zM642 626h106v-95q0 -7 5 -12.5t12.5 -5.5t12.5 5.5t5 12.5v130h-141q-8 0 -13 -5t-5 -12.5t5 -12.5t13 -5z" />
    <glyph glyph-name="youjian" unicode="&#xe74e;" 
d="M418 381l-135 135v-269v-1l135 135v0zM719 537h-414l207 -207zM512 287l-72 72l-128 -128h402l-129 129zM512 832q-91 0 -174 -35.5t-143 -95.5t-95.5 -143t-35.5 -174t35.5 -174t95.5 -143t143 -95.5t174 -35.5t174 35.5t143 95.5t95.5 143t35.5 174t-35.5 174
t-95.5 143t-143 95.5t-174 35.5zM772 247q0 -19 -13.5 -32.5t-32.5 -13.5h-427q-19 0 -32.5 13.5t-13.5 32.5v274q0 19 13.5 32.5t32.5 13.5h427q19 0 32.5 -13.5t13.5 -32.5v-274zM607 381l134 -134v269l-134 -135v0z" />
    <glyph glyph-name="wodeguanzhu" unicode="&#xe63d;" 
d="M501 268q2 0 5 -0.5t13 1t20 4.5t24.5 10.5t28 19t28.5 31t27.5 44.5t24.5 62t20 80q19 107 -32.5 180t-158.5 73q-110 0 -162.5 -73t-32.5 -180q8 -43 20 -80t25 -62t28 -44.5t29.5 -31t28 -19t25 -10.5t20.5 -4.5t14 -1l5 0.5v0v0zM652 57h-73v113h73v43
q-57 10 -136 10q-3 0 -9 -0.5t-8 -0.5t-8 0.5t-10 0.5q-69 0 -124 -9t-75 -16.5t-55 -22.5q-37 -17 -54.5 -40t-17.5 -70v-70h149h348v62zM843 144h-83v83h-66v-83h-83v-66h83v-83h66v83h83v66z" />
    <glyph glyph-name="zhoubianwangdian" unicode="&#xe9ac;" 
d="M516 167zM416 167q0 -41 29 -70.5t70.5 -29.5t70.5 29.5t29 70.5t-29 70t-70.5 29t-70.5 -29t-29 -70zM934 702h-841l-90 -239q0 -53 37.5 -90.5t90 -37.5t90 37.5t37.5 90.5q0 -53 37.5 -90.5t90.5 -37.5t90 37.5t37 90.5q0 -53 37.5 -90.5t90.5 -37.5t90.5 37.5
t37.5 90.5q0 -53 37 -90.5t90 -37.5t90.5 37.5t37.5 90.5zM651 224q-11 27 -32 47.5t-47 31.5q-28 12 -58.5 12t-58.5 -12q-26 -11 -47 -31.5t-32 -47.5q-12 -28 -12 -58v0q0 -25 9 -49q4 -13 11 -25q1 -1 1 -2l1 -2q3 -5 7 -9l113 -170q2 -4 7 -4v0h1v0q5 0 7 4l114 170
q3 4 6 9l1 2q1 1 1 2q20 34 20 74q0 30 -12 58zM513.5 82q-33.5 0 -57 23.5t-23.5 57t23.5 57t57 23.5t57 -23.5t23.5 -57t-23.5 -57t-57 -23.5zM164 737h702q20 0 34 14t14 34t-14 34t-34 14h-702q-19 0 -33 -14t-14 -34t14 -34t33 -14zM345 32q-3 6 -7 11l-1 1q-2 4 -4 7
v0h-137v236q-11 -5 -25 -8l-6 -1q-1 0 -2 -0.5l-1 -0.5q-8 -1 -13 -2v0h-16q-16 0 -32 3v-322q0 -20 14 -34t34 -14h279zM898 275h-16v0v0v1q-5 0 -13 1q-1 0 -2 0.5l-1 0.5l-6 1q-14 3 -25 8v-236h-137l-4 -6l-1 -2q-3 -5 -7 -10l-83 -125h279q20 0 34 14t14 34v322
q-16 -3 -32 -3z" />
    <glyph glyph-name="zhibo" unicode="&#xe50a;" 
d="M525 401q-40 23 -69 41l-17 10v-280l17 10q5 3 14 9l1 1q36 22 57 34q87 48 133 76l17 10l-17 10q-82 46 -136 79v0zM837 688h-182l50 91q6 10 3.5 22t-12.5 19q-10 6 -21 2.5t-18 -14.5l-67 -120h-143l-67 120q-6 11 -17 14.5t-21 -2.5q-10 -7 -12.5 -19t2.5 -22l51 -91
h-170q-53 0 -92 -40.5t-39 -96.5v-478q0 -56 39 -96.5t92 -40.5h624q56 0 94 40t38 97v478q0 56 -39 96.5t-93 40.5v0zM715 271q-5 -3 -43 -25l-2 -1q-70 -42 -116 -69q-26 -15 -69 -40q-25 -15 -28 -16l-3 -1l-1 -2q-8 -7 -21 -7q-21 0 -35 14.5t-14 35.5v301q0 22 14.5 38
t34.5 16q13 0 26 -7q2 -1 30 -18h1q36 -21 62 -36q135 -77 163 -95h1q22 -14 23 -44q0 -31 -23 -44v0z" />
    <glyph glyph-name="youxi" unicode="&#xe612;" 
d="M939 243h-23v102h-215v-102h-36v102h-216v-102h-141l18 273h-102l18 -273h-154q-10 0 -16.5 -6.5t-6.5 -16.5v-147q0 -9 7 -15.5t16 -6.5h475v0h0.5h1.5v0q9 0 15.5 6.5t6.5 15.5v0q0 9 -6 15.5t-15 6.5h75q-9 0 -15 -6.5t-6 -15.5v0q0 -9 6.5 -15.5t15.5 -6.5h1.5h0.5v0
h79v0v0v0q10 0 16.5 6.5t6.5 15.5v0q0 9 -6.5 15.5t-14.5 6.5h145q-8 0 -14.5 -6.5t-6.5 -15.5v0q0 -9 6.5 -15.5t16.5 -6.5h1h1h65q9 0 15.5 6.5t6.5 15.5v147q0 10 -6.5 16.5t-15.5 6.5zM563 95v0v0zM644 95v0v0v0zM874 95h-0.5h-0.5h1v0zM110 198h806v-103h-806v103z
M494 301h126v-58h-126v58zM746 301h126v-58h-126v58zM265 243l-17 250h55l-18 -250h-20zM275 583zM160 583.5q0 -47.5 33.5 -81.5t81.5 -34t81.5 34t33.5 81.5t-33.5 81t-81.5 33.5t-81.5 -33.5t-33.5 -81zM275 583zM205 583q0 -29 20.5 -49.5t49.5 -20.5t49.5 20.5
t20.5 49.5t-20.5 50t-49.5 21t-49.5 -21t-20.5 -50z" />
    <glyph glyph-name="icon-yxj-life" unicode="&#xe670;" 
d="M512 896q-88 0 -169 -34.5t-139 -93t-92.5 -139t-34.5 -168.5q0 -104 50.5 -196.5t131.5 -157.5q84 -67 227 -150q26 -14 51 0q143 81 228 149q80 65 131 158t51 197q0 88 -34.5 168.5t-92.5 139t-139 93t-169 34.5zM695 417l-134 -134q-20 -20 -49 -20q-28 0 -49 20
l-134 134q-41 41 -42 99.5t39 99.5q41 43 101 43q48 0 85 -29q38 29 85 29q59 0 101 -43q40 -41 39 -99.5t-42 -99.5zM597 618q-38 0 -67 -26q-8 -7 -18 -7t-18 7q-29 26 -67 26q-42 0 -72 -30q-28 -29 -27 -70.5t30 -71.5l135 -134q8 -8 19 -8t19 8l135 134q29 30 30 71.5
t-27 70.5q-30 30 -72 30zM512 -128q-163 0 -277 31q-127 34 -127 92q0 54 111 87q8 3 15.5 -1t10.5 -12q2 -8 -2 -15.5t-12 -10.5q-30 -9 -50 -19.5t-26.5 -17t-6.5 -11.5q0 -15 40 -33.5t127.5 -33.5t196.5 -15t196.5 15t127.5 33.5t40 33.5q0 5 -6.5 11.5t-26.5 17
t-49 19.5q-8 2 -12.5 9.5t-2 16t10 12.5t15.5 1q111 -33 111 -87q0 -58 -127 -92q-114 -31 -277 -31z" />
    <glyph glyph-name="xingqu" unicode="&#xe68c;" 
d="M1024 -77q0 -21 -15 -36t-36 -15h-922q-21 0 -36 15t-15 36v922q0 21 15 36t36 15h922q21 0 36 -15t15 -36v-922zM660 572q-57 0 -129 -86q-72 86 -129 86q-69 0 -117.5 -47t-48.5 -113q0 -24 8.5 -48.5t16.5 -37t23 -33.5q28 -38 87 -89.5t89 -73t50 -35.5q9 -6 21 -6v0
v0v0q12 0 21 6q20 13 50 35t89 73.5t87 89.5q14 21 22 33.5t17 37t9 48.5q0 66 -49 113t-117 47z" />
    <glyph glyph-name="huiyuanjifen_weixuanze" unicode="&#xe614;" 
d="M96 576q-13 0 -22.5 -9.5t-9.5 -22.5t9.5 -22.5t22.5 -9.5t22.5 9.5t9.5 22.5t-9.5 22.5t-22.5 9.5zM927.5 576q-13.5 0 -23 -9.5t-9.5 -22.5t9.5 -22.5t23 -9.5t22.5 9.5t9 22.5t-9 22.5t-22.5 9.5zM512 704q13 0 22.5 9.5t9.5 22.5t-9.5 22.5t-23 9.5t-22.5 -9.5
t-9 -22.5t9 -22.5t23 -9.5l-192 -320l-192 128l64 -384h640l63 384l-191 -128zM812 382l-32 -190h-537l-31 190l74 -49q15 -10 34 -10q14 0 29.5 8.5t22.5 21.5l140 232l139 -232q7 -13 22.5 -21.5t30.5 -8.5q18 0 34 10zM805 64h-586q-11 0 -18.5 -9t-7.5 -22.5t7.5 -23
t18.5 -9.5h586q11 0 19 9.5t8 23t-8 22.5t-19 9z" />
    <glyph glyph-name="paixingbang" unicode="&#xe642;" 
d="M908.5 658.5q-7.5 10.5 -20.5 10.5h-109q-11 0 -18.5 -7.5t-7.5 -18t7.5 -18t18.5 -7.5h72q-34 -84 -91.5 -145t-129.5 -91q52 58 82 158t30 220q0 11 -7.5 18.5t-18.5 7.5h-413q-10 0 -17.5 -7.5t-7.5 -18.5q0 -120 30 -220t81 -158q-71 29 -128.5 90t-91.5 146h68
q11 0 18.5 7.5t7.5 18t-7.5 18t-18.5 7.5h-105q-13 0 -21 -10.5t-4 -22.5q42 -127 129 -212t197 -109q-4 -79 -66 -128h-25q-20 0 -34.5 -14.5t-14.5 -34.5v-112q0 -20 14.5 -34t34.5 -14h335q21 0 35.5 14t14.5 34v112q0 20 -14.5 34.5t-35.5 14.5h-24q-63 49 -66 128
q110 24 196.5 109t128.5 212q4 12 -3.5 22.5zM675 29h-331v106h331v-106zM690 735q-3 -99 -28 -182.5t-65.5 -132.5t-86.5 -49t-86.5 49t-65.5 132.5t-28 182.5h360zM578 190h-137q38 51 43 118q14 -1 25.5 -1t26.5 1q4 -67 42 -118zM418 57h184q11 0 18.5 7.5t7.5 18
t-7.5 18t-18.5 7.5h-184q-11 0 -18.5 -7.5t-7.5 -18t7.5 -18t18.5 -7.5z" />
    <glyph glyph-name="huati" unicode="&#xe616;" 
d="M957 359v-72q0 -33 -13 -64q-12 -30 -35 -54q-23 -23 -54 -37q-9 -4 -20 -8q-2 -1 -5.5 -2t-5.5 -2q-10 -3 -13 -8q-2 -5 -4 -12l-3 -12q-4 -14 -9 -39v-1q-6 -27 -11 -46q-40 79 -69 104l-7 5q-7 5 -15 5h-91h-4h-17q-33 0 -59 6q-19 4 -32 12q-5 2 -13.5 9t-9.5 8
q-15 10 -20 16q-4 5 -4 10q0 3 1 4q2 1 6 -1q7 -3 15.5 -4.5t15.5 -1.5h33q106 0 180.5 75.5t74.5 182.5v108l33 1h2h8q47 0 81 -28t49 -68t15 -86zM515 789h-247q-106 0 -181 -75.5t-75 -182.5v-99q0 -60 26 -114q26 -53 72 -89q20 -16 44 -28q9 -5 24 -11q2 -1 6.5 -2.5
t6.5 -1.5q14 -5 18 -9q9 -6 11 -18q1 -6 5 -21q6 -26 10 -44q14 -63 19.5 -79t13.5 -16q5 0 8 6q5 11 6 13q21 41 39 72q21 35 37.5 55.5t23 24.5t10.5 4h123q105 0 180 75.5t75 181.5v100q0 107 -75 182.5t-180 75.5zM715 432q0 -84 -58.5 -143.5t-141.5 -59.5h-124
q-50 0 -109 -95q-11 47 -19.5 66t-24.5 25q-9 7 -22 11q-66 17 -107.5 72t-41.5 124v100q0 84 58.5 143t141.5 59h248q83 0 141.5 -59t58.5 -143v-100zM515 734h-247q-83 0 -142 -59.5t-59 -143.5v-99q0 -70 42 -124.5t108 -71.5q12 -4 21 -11q17 -6 25.5 -25.5t18.5 -65.5
q60 95 109 95h124q83 0 141.5 59.5t58.5 143.5v99q0 84 -58.5 143.5t-141.5 59.5zM200 425q-13 2 -22 11t-11 22q-2 16 9.5 28.5t27.5 12.5q15 0 26 -11t11 -26q0 -17 -12.5 -28t-28.5 -9zM373 425q-12 2 -21 11t-11 21q-2 18 10.5 31t30.5 11q13 -2 22 -11t10 -21
q3 -18 -10 -31t-31 -11zM566 425q-12 2 -21 11t-11 21q-2 18 11 31t31 11q12 -2 21 -11t11 -21q2 -18 -11 -31t-31 -11zM665 492h-36l1 8q0 35 -14 61.5t-33.5 40t-46 22t-44 11t-34.5 2.5h-7v36l8 -1q91 -1 146 -42q61 -47 60 -130v-8zM1012 359v-72q0 -73 -43 -131.5
t-113 -81.5q-1 -4 -8 -37l-2 -10l-9 -36q-9 -32 -22 -44q-9 -8 -28 -11q-2 0 -24 -1q-7 0 -10 4q-2 2 -4 7t-3 6q-2 4 -6 13q-2 4 -11 21.5t-14 26.5q-13 20 -19 30q-1 1 -3 4.5t-4 6.5t-4.5 5.5t-3.5 2.5h-81q-18 -1 -36 0q-36 2 -63 9q-28 8 -49 22q-11 8 -19 15
q-9 9 -11 17q-4 11 0.5 21.5t13.5 14.5q4 2 7.5 2t6.5 -1t7 -3.5t6 -4t6 -5t5 -4.5q11 -9 15 -11q13 -7 32 -12q26 -6 60 -6h9h7q3 0 4 1h91q7 0 15 -5l7 -5q29 -25 69 -104q4 13 11 46v1q6 27 9 38q2 9 3 13q4 10 4 11q3 5 13 9q4 1 11 3q8 3 20 8q31 14 54 37q23 25 36 54
q12 32 12 65v71q0 46 -14.5 86.5t-48.5 68t-81 27.5h-8l-1 0.5l-1 0.5q-10 2 -14 12t-1 21q7 24 45 20q80 -8 130 -73t50 -163zM241 462q0 -16 -12.5 -27.5t-28.5 -9.5q-13 2 -22 11t-11 22q-2 16 9.5 28.5t27.5 12.5q15 0 26 -11t11 -26zM373 425q-12 2 -21 11t-11 21
q-2 18 10.5 31t30.5 11q13 -2 22 -11t10 -21q3 -18 -10 -31t-31 -11zM665 500l-1 -8l-35 1v8q1 35 -13 61t-33.5 40t-46 22.5t-44 10.5t-34.5 2h-8l1 36h8q90 -2 145 -43q62 -46 61 -130zM566 425q-12 2 -21 11t-11 21q-2 18 11 31t31 11q12 -2 21 -11t11 -21q2 -18 -11 -31
t-31 -11zM798 271q-12 1 -21 10t-11 22q-2 18 11 30.5t31 10.5q12 -1 21 -10t11 -22q2 -18 -11 -31t-31 -10z" />
    <glyph glyph-name="dianying" unicode="&#xe505;" 
d="M516.5 271q-18.5 0 -32 -13t-13.5 -31.5t13.5 -31.5t32 -13t31 13t12.5 31.5t-12.5 31.5t-31 13zM625 380q0 -18 13 -31.5t31.5 -13.5t31.5 13t13 31.5t-13 31.5t-31.5 13t-31.5 -13t-13 -31zM516.5 497q18.5 0 31 13t12.5 31.5t-12.5 31t-31 12.5t-32 -13t-13.5 -31
t13.5 -31t32 -13zM354.5 424q-18.5 0 -31.5 -13t-13 -31.5t13 -31.5t31.5 -13t31.5 13.5t13 31.5t-13 31t-31.5 13zM512 651q-110 0 -188 -78.5t-78 -189.5q0 -110 78 -188t188 -78t188 78t78 188q0 111 -78 189.5t-188 78.5zM516 626q35 0 60 -25t25 -60t-25 -60t-60 -25
t-60 25t-25 60t25 60t60 25zM560 383.5q0 -20.5 -14 -34.5t-34.5 -14t-34 14t-13.5 34.5t14 34.5t34 14t34 -14t14 -34.5zM354.5 295q-35.5 0 -60.5 25t-25 60t25 60t60.5 25t60 -25t24.5 -60t-24.5 -60t-60 -25zM516 142q-35 0 -60 24.5t-25 60t25 60t60 24.5t60 -24.5
t25 -60t-25 -60t-60 -24.5zM755 380q0 -35 -25 -60t-60 -25t-60 25t-25 60t25 60t60 25t60 -25t25 -60zM512 896q-104 0 -199 -41t-163.5 -109.5t-109 -163t-40.5 -198.5t40.5 -199t109 -163.5t163.5 -109t199 -40.5t199 40.5t163.5 109t109 163.5t40.5 199t-40.5 198.5
t-109 163t-163.5 109.5t-199 41zM512 77q-82 0 -153 41q-64 14 -124 -11q-15 -6 -22 8q-2 8 -3.5 12t3 8.5t7 6t8.5 4.5q29 14 74 14q-45 44 -71 101.5t-26 121.5q0 128 90 217.5t217 89.5t217 -89.5t90 -217.5q0 -126 -90 -216t-217 -90z" />
    <glyph glyph-name="fangwu" unicode="&#xe64b;" horiz-adv-x="1057" 
d="M816 -97q34 0 55 15q19 17 19 40v418h86q26 0 37 4q10 3 13 6q2 2 -2 10q-6 12 -18 23l-400 413q-16 16 -35 25q-23 8 -42.5 8t-42.5 -8q-19 -9 -35 -25l-400 -413q-12 -11 -18 -23q-4 -8 -2 -10q3 -3 11 -6q13 -4 38 -4h88v-418q0 -23 18 -40q21 -15 55 -15h132v239
q0 64 46 110q47 45 109.5 45t109.5 -45q46 -46 46 -110v-239h132zM755 482q21 0 36.5 -15.5t15.5 -36.5t-15.5 -36t-36.5 -15t-36 15t-15 36t15 36.5t36 15.5zM302 482q21 0 36 -15.5t15 -36.5t-15 -36t-36 -15t-36.5 15t-15.5 36t15.5 36.5t36.5 15.5zM403 -97h251v239
q0 51 -37 87q-38 37 -88 37t-89 -37q-37 -36 -37 -87v-239zM669 -128h-428q-45 0 -73 22q-31 25 -31 64v387h-57q-28 0 -46 6q-24 8 -32 24q-5 14 4 34q8 15 23 33l399 412q18 17 46 31q25 11 54.5 11t54.5 -11q28 -14 46 -31l399 -412q15 -18 23 -33q9 -20 4 -34
q-8 -16 -32 -24q-20 -6 -47 -6h-56v-387q0 -40 -30 -64q-29 -22 -74 -22h-147zM403 -97h251v239q0 51 -37 87q-38 37 -88 37t-89 -37q-37 -36 -37 -87v-239z" />
    <glyph glyph-name="sou" unicode="&#xe501;" 
d="M873 77v0v0v0q10 -12 10 -26q0 -15 -11 -27q-11 -11 -27 -11v0q-7 0 -13 2q-9 3 -16 11v-1l-204 206q-74 -52 -165 -52q-9 0 -19 1q-18 1 -35 6q-56 3 -117 51q-41 24 -77 87q-29 49 -35 109l-1 -1q-2 16 -2 32q0 4 0 3q0 25 5 50q10 67 52 122q10 20 40 44.5t66 40.5
l-10 -3q10 7 41 18q43 16 92 16v0q20 0 38 -3q49 -6 94 -29q73 -39 113 -109l-2 7q11 -12 26 -54q20 -56 18 -113q-4 -95 -66 -171l206 -206h-1v0zM691 455v13q0 46 -18 88q-19 53 -61 91q-8 7 0 -1q-5 5 -10 9q-47 40 -108 52q-15 3 0 1q-24 3 -45 3q-15 0 -30 -2
q-2 0 -6 -1h-5q-66 -11 -116 -53q-19 -12 -39.5 -41t-32.5 -64q-1 3 -3 -3q-10 -24 -12 -69q-3 -62 23 -115q31 -69 97 -106q0 -3 12 -9.5t34 -13t44 -9.5q1 -2 11.5 -2.5t28 0t33.5 3.5q46 8 84 31q7 2 27 18.5t37 37.5l-1 -4q12 11 33 53q2 3 3 7l-14 -26q4 7 8 15v0
q25 48 26 104v-7z" />
    <glyph glyph-name="huodong" unicode="&#xe627;" 
d="M867 685q27 48 23 83q-7 47 -48 77q-52 31 -116 13q-53 -15 -112 -57.5t-99 -96.5q-41 56 -100 99t-111 55q-69 14 -115 -13q-48 -32 -48 -77q-5 -35 22 -83h-35q-38 0 -65.5 -27.5t-27.5 -65.5v-118q0 -31 17.5 -55.5t46.5 -34.5q-6 -19 -6 -32v-358q0 -39 27 -66
t66 -27h656q38 0 65 27t27 66v358q0 13 -6 32q29 10 46.5 33.5t17.5 52.5v119q0 38 -27 65.5t-66 27.5h-32v3zM838 -29h-294v410h294q12 0 19 -8t7 -18v-358q2 -12 -5.5 -19t-20.5 -7zM582 685q37 41 79.5 70t80.5 39q38 9 64 -7q20 -11 20 -29q3 -25 -39 -76zM925 592v-118
q0 -12 -8 -19t-18 -7h-355v173h355q12 0 19 -8.5t7 -20.5zM480 381v-410h-294q-12 0 -19 8t-7 18v358q0 12 7.5 19t18.5 7h294zM202 762q0 13 19 28q25 15 64 7q38 -10 80.5 -39t76.5 -70h-202q-42 42 -38 74zM99 592q0 11 8 18.5t18 7.5h355v-173h-355q-12 0 -19 7.5
t-7 17.5v122zM838 -112h-656q-45 0 -76.5 31.5t-31.5 77.5v358q0 16 3 23q-61 30 -61 99v118q0 46 31.5 77.5t77.5 31.5h6q-13 30 -13 67q8 57 58 90q56 35 128 16q52 -12 108 -51t100 -93q43 52 99 90.5t109 53.5q72 19 128 -16q51 -35 58 -90q4 -28 -13 -67h6
q46 0 77.5 -31.5t31.5 -77.5v-118q0 -31 -17 -57.5t-44 -38.5q0 -3 1.5 -10t1.5 -13v-358q-2 -48 -34 -80t-78 -32zM125 669q-31 0 -54 -23t-23 -54v-118q0 -25 15.5 -46t38.5 -28l16 -6l-6 -16q-3 -10 -3 -26v-358q0 -32 22.5 -54.5t54.5 -22.5h656q31 0 53.5 22.5
t22.5 54.5v358q0 16 -3 26l-6 16l16 6q24 7 39 27t15 47v118q0 31 -22.5 54t-54.5 23h-60l12 25q25 39 20 74q-8 43 -42 64q-38 29 -102 13q-51 -12 -107.5 -53.5t-94.5 -93.5l-13 -16l-13 16q-41 53 -96.5 94t-104.5 53q-61 15 -103 -13q-41 -29 -41 -64q-5 -35 19 -74
l13 -25h-64zM838 -45h-310v442h310q17 0 29.5 -12.5t12.5 -29.5v-358q2 -17 -10 -29.5t-32 -12.5zM560 -13h278q10 0 10 10v358q0 10 -10 10h-278v-378zM496 -45h-310q-17 0 -29.5 12.5t-12.5 29.5v358q0 17 12.5 29.5t29.5 12.5h310v-442zM186 365q-10 0 -10 -10v-358
q0 -10 10 -10h278v378h-278zM899 432h-371v205h371q17 0 29.5 -12.5t12.5 -29.5v-118q0 -19 -12.5 -32t-29.5 -13zM560 464h339q10 0 10 10v118q0 10 -10 10h-339v-138zM496 432h-371q-17 0 -29.5 12.5t-12.5 29.5v118q0 17 12.5 29.5t29.5 12.5h371v-202zM125 605
q-10 0 -10 -10v-118q0 -10 10 -10h339v141h-339v-3zM790 669h-243l23 25q35 42 79.5 72.5t86.5 43.5q52 10 77 -7q25 -15 25 -38q4 -42 -44 -90zM618 701h156q34 40 29 57q0 7 -13 16q-14 11 -51 4q-54 -15 -121 -77zM477 669h-243l-4 3q-48 48 -44 90q0 23 25 38
q31 20 77 6q81 -19 166 -115zM246 701h157q-68 62 -125 77q-34 6 -51 -4q-13 -6 -13 -16q5 -23 32 -57zM464 602h99v-615h-99v615zM464 602h99v-615h-99v615zM464 607h99v-618h-99v618z" />
    <glyph glyph-name="youxizhongxin" unicode="&#xe606;" 
d="M960 384q0 -122 -60 -225t-163 -163t-225 -60t-225 60t-163 163t-60 225t60 225t163 163t225 60t225 -60t163 -163t60 -225zM709 496h-177v30q0 3 0.5 8t5 16t11.5 20t22.5 16.5t35.5 7.5h60v39h-60q-33 0 -57 -12.5t-36 -31t-17 -34.5t-5 -29v-30h-177q-33 0 -56 -23
t-23 -56v-172q0 -33 23 -56.5t56 -23.5h394q33 0 56 23.5t23 56.5v172q0 33 -23 56t-56 23zM478 306h-71v-71h-50v71h-71v50h71v71h50v-71h71v-50zM556 307q-10 0 -17 7t-7 17t7 17t17 7t17 -7t7 -17t-7 -17t-17 -7zM625 238q-10 0 -17.5 7t-7.5 17t7.5 17t17.5 7t17 -7
t7 -17t-7 -17t-17 -7zM625 376q-10 0 -17.5 7t-7.5 17t7.5 17t17.5 7t17 -7t7 -17t-7 -17t-17 -7zM694 307q-10 0 -17 7t-7 17t7 17t17 7t17 -7t7 -17t-7 -17t-17 -7z" />
    <glyph glyph-name="wudao" unicode="&#xe604;" 
d="M956 348q-52 136 -173 221t-271 85t-271 -85t-173 -221l443 -212l-95 -46q35 -49 95.5 -49t96.5 49l-96 46zM512 136l208 99q-25 64 -81.5 103.5t-126.5 39.5t-127 -39.5t-81 -103.5zM406 111l540 258l14 -29l-540 -258zM666 316l-18 16l-112 -135l40 173l-24 5l-40 -172
l-40 172l-24 -5l40 -173l-112 135l-19 -16l112 -133l-391 186l-14 -29l540 -258l14 30l-87 41z" />
    <glyph glyph-name="yule" unicode="&#xe607;" 
d="M132 -50l-56 56q-12 13 -12 31.5t12 31.5l434 433q13 13 31 13t31 -13l56 -56q13 -13 13 -31t-13 -31l-434 -434q-12 -12 -30.5 -12t-31.5 12zM352 344l158 158q13 13 31 13t31 -13l56 -56q13 -13 13 -31t-13 -31l-158 -158zM322 116l-81 82q-6 6 -6 15t6 15.5t15.5 6.5
t15.5 -6l82 -81q6 -7 6 -16t-6.5 -15.5t-15.5 -6.5t-16 6zM788 395q0 2 2 2l168 45q2 1 0 2l-122 123q-2 2 -1 3l49 182q0 1 -0.5 1.5t-1.5 0.5l-182 -49q-2 -1 -3 1l-123 123q-1 1 -2 -1l-45 -168q0 -2 -2 -2l-168 -45q-2 -1 -1 -2l123 -123q2 -1 1 -3l-49 -182
q0 -1 0.5 -1.5t1.5 0.5l182 48q2 1 3 -1l123 -122q1 -2 2 0zM944 489l-86 86l35 131q8 30 -10 47.5t-47 9.5l-131 -35l-86 86q-22 22 -46.5 15.5t-32.5 -36.5l-31 -117l-117 -31q-30 -8 -36.5 -32.5t15.5 -46.5l86 -86l-35 -131q-8 -29 10 -47q12 -12 31 -12q8 0 16 2
l131 35l86 -86q16 -16 36 -16q5 0 10 1q25 7 33 36l31 117l117 32q29 8 36 32.5t-15 45.5zM847 722q2 1 4 1h2q0 -2 -1 -6l-29 -107l-83 83zM810 562l-39 -148l-148 -39l-119 118l40 148l148 40zM582 782q0 2 1 4l1 1q2 -1 5 -3l68 -68l-100 -27zM401 596l-2 4l-1 1q1 1 5 2
l93 25l-27 -100zM468 333q-2 0 -4 -1h-2q0 2 1 6l29 107l83 -83zM733 273l-2 -4v-1q-2 1 -5 4l-68 68l100 26zM912 452l-93 -25l26 100l69 -68q1 -2 2 -3t1 -2q-2 -1 -5 -2z" />
    <glyph glyph-name="guixu" unicode="&#xe608;" 
d="M958 384q0 55 -26.5 101.5t-70.5 74.5q2 12 2 24q0 69 -49 117.5t-117 48.5q-35 0 -66 -14q-49 50 -119 50t-119 -50q-31 14 -66 14q-68 0 -117 -48.5t-49 -117.5q0 -10 2 -24q-44 -28 -70.5 -74.5t-26.5 -100.5q0 -50 22 -93t60 -72v-1.5v-0.5q0 -98 69 -167t167 -69
q70 0 129 38q59 -38 128 -38q98 0 167.5 69t69.5 167v2v1q37 29 58.5 71.5t21.5 91.5zM697 418q-70 0 -119 50q-31 -13 -66 -13t-66 13q-49 -50 -119 -50q-4 0 -12 1v-184q0 -75 53.5 -128.5t128.5 -53.5h37q75 0 128.5 53.5t53.5 128.5v184q-10 -1 -19 -1zM510 230z
M473 229.5q0 -15.5 10.5 -26t26 -10.5t26 10.5t10.5 26t-10.5 26t-26 10.5t-26 -10.5t-10.5 -26zM647 336h-23v23q0 6 -4 9.5t-9 3.5h-5q-6 0 -9.5 -3.5t-3.5 -9.5v-23h-24q-5 0 -9 -4t-4 -9v-5q0 -6 4 -9.5t9 -3.5h24v-24q0 -5 3.5 -8.5t9.5 -3.5h5q5 0 9 3.5t4 8.5v24h23
q6 0 9.5 3.5t3.5 9.5v5q0 5 -3.5 9t-9.5 4zM450 336h-24v23q0 6 -3.5 9.5t-9.5 3.5h-5q-5 0 -9 -3.5t-4 -9.5v-23h-23q-6 0 -9.5 -4t-3.5 -9v-5q0 -6 3.5 -9.5t9.5 -3.5h23v-24q0 -5 4 -8.5t9 -3.5h5q6 0 9.5 3.5t3.5 8.5v24h24q5 0 9 3.5t4 9.5v5q0 5 -4 9t-9 4zM608.5 230
q-5.5 0 -9.5 -4t-4 -10q0 -28 -25 -48t-60.5 -20t-60.5 20t-25 48q0 6 -4 10t-9.5 4t-9.5 -4t-4 -10q0 -39 33 -67t79.5 -28t79.5 28t33 67q0 6 -4 10t-9.5 4z" />
    <glyph glyph-name="shishang" unicode="&#xe609;" 
d="M710 734q27 -9 33 -37v-1v0q8 -46 -15 -86v0q-21 -33 -26 -44q-28 -55 -28 -119v-44h-324v44q0 64 -28 119l-26 44v0q-23 40 -15 86v0v1q3 15 13.5 25t25.5 14v61q0 14 8.5 24.5t21 10.5t21 -10.5t8.5 -24.5v-82q62 -35 133 -35q75 0 138 38l1 79q0 14 8.5 24.5
t20.5 10.5t21 -10.5t9 -24.5v-63zM674 421h-324l-178 -323q-7 -13 -4 -28t15 -24q146 -110 328 -110q184 0 330 111q12 9 15 24t-4 28zM400 367q-10 5 -15 -5l-137 -277q-5 -10 5 -15q3 -1 5 -1q7 0 10 6l137 277q5 10 -5 15zM450 249.5q-11 2.5 -13 -8.5l-45 -188
q-2 -11 8 -14h3q9 0 11 9l44 188q3 11 -8 13.5zM776 85l-137 277q-5 10 -15 5t-5 -15l137 -277q3 -6 10 -6q2 0 5 1q10 5 5 15zM587 241q-2 11 -13 8.5t-8 -13.5l44 -188q2 -9 11 -9h2q11 3 9 14z" />
    <glyph glyph-name="guanggao" unicode="&#xe60a;" 
d="M584 806q28 27 100 -7t147 -109t109 -147.5t7 -99.5q-3 -3 -7 -5q-19 -11 -197 -116.5t-347.5 -205l-169.5 -99.5q-25 6 -54 35q-14 14 -23.5 27.5t-12.5 20.5l-2 7q424 655 444 691q3 5 6 8zM134 107v1q-4 -4 -58 -33q-12 -7 -10 -21q5 -35 35 -65q30 -31 66 -38
q14 -3 22 9q35 57 37 57q-25 6 -54 35q-14 14 -23.5 27.5t-12.5 20.5zM584 806q28 27 100 -7t147 -109t109 -147.5t7 -99.5q-3 -3 -7 -5l-113 -67q-3 0 -8.5 1t-24.5 8.5t-40 19.5t-53.5 37.5t-66.5 60.5q-32 32 -57 63.5t-37 53t-20 39t-9 26.5l-2 8q45 69 69 110q3 5 6 8z
M700 559v0q75 -75 147.5 -109t99.5 -7t-7 99.5t-109 147.5v0q-75 75 -147.5 109t-99.5 7t7 -99.5t109 -147.5z" />
    <glyph glyph-name="fanju" unicode="&#xe60b;" 
d="M597 540l-14 8l167 229q8 12 6 26t-13.5 22.5t-25.5 6t-23 -13.5l-169 -234l-269 166q-12 7 -26 4t-21.5 -15t-4.5 -26t16 -22l264 -163l-25 -34q-9 -12 -6.5 -26t14 -22.5t25.5 -6t22 13.5l29 39l18 -11q12 -7 25.5 -3.5t21 15.5t4.5 26t-15 21zM791 -4zM731 -4.5
q0 -24.5 17.5 -42t42 -17.5t42 17.5t17.5 42t-17.5 42t-42 17.5t-42 -17.5t-17.5 -42zM233 -4zM174 -4.5q0 -24.5 17.5 -42t42 -17.5t42 17.5t17.5 42t-17.5 42t-42 17.5t-42 -17.5t-17.5 -42zM852 -16h-680q-29 0 -50 21t-21 51v463q0 29 21 50t50 21h680q29 0 50 -21
t21 -50v-464q0 -29 -21 -50t-50 -21zM521 301zM378 301q0 -59 42 -100.5t101 -41.5t100.5 41.5t41.5 100.5t-41.5 100.5t-100.5 41.5t-101 -41.5t-42 -100.5zM473 385q0 2 1 1l146 -84q2 -1 0 -2l-146 -84q-1 -1 -1 1v168z" />
    <glyph glyph-name="dianshiju" unicode="&#xe60c;" 
d="M253.5 688q-34.5 -40 -49 -90.5t-6.5 -103.5l27 -142q17 -6 29.5 -18.5t19.5 -25t12.5 -34.5t7.5 -35.5t4 -38.5q2 -10 2 -15q71 16 212 16q147 0 218 -16q2 10 4 34t3.5 35.5t6 30t10.5 29t17 21.5t26 17l29 143q8 52 -6.5 102.5t-49 90.5t-82.5 62t-101 22h-150
q-53 0 -101 -22t-82.5 -62zM513 503l-39 39q-6 6 -15 6t-15 -6t-6 -15t6 -16l28 -27l-28 -28q-6 -7 -6 -16t6 -15t15 -6t15 6l39 39l39 -39q6 -6 15 -6t15.5 6t6.5 15t-6 16l-28 28l28 27q6 7 6 16t-6.5 15t-15.5 6t-15 -6zM866 425q-62 0 -105.5 -42t-43.5 -101v-77
l-410 -2v77q0 57 -38.5 98t-95.5 46l-15 1q-39 0 -66 -26t-27 -63q0 -8 1 -15q7 -41 44 -62l9 -4l3 -2q17 -8 17 -24v-72q0 -40 25 -72.5t64 -45.5q4 -19 19.5 -31t36.5 -12q18 0 33 10t21 26h348q6 -16 21 -26t33 -10q21 0 37 12.5t19 30.5q39 13 64 45.5t25 72.5v72l1 8
q3 7 9 12l2 1l5 3q23 10 38 28t18 41l1 14q0 37 -27 63t-66 26z" />
    <glyph glyph-name="guochandonghuatuijian" unicode="&#xe610;" 
d="M893 588q-89 89 -170 42q18 95 -54 168q-4 -5 -9.5 -13t-16.5 -34t-16 -51.5t0.5 -61.5t25.5 -69q-36 -38 -38 -41q-14 -13 -8 -30t21 -21t30 8l73 72q20 20 41 23t39 -6t39 -30q13 -13 29.5 -7t21 21t-7.5 30zM716 564q-59 59 -143 59t-143 -59q-28 -28 -44 -65
q-109 0 -186.5 -77.5t-77.5 -187t77.5 -187t187 -77.5t187 77.5t77.5 187.5q37 15 65 43q59 60 59 143.5t-59 142.5zM515 81q-60 -57 -142.5 -55.5t-140 61t-56 142t61.5 140.5q-2 -5 -4.5 -14.5t-6 -36t-0.5 -52.5t17 -59.5t40 -60.5q86 -89 202 -71zM515 81z" />
    <glyph glyph-name="shaohouguankan" unicode="&#xe684;" 
d="M368 645q-7 7 -17 7t-17.5 -7.5t-7.5 -18.5v-323q0 -11 7.5 -18.5t17.5 -7.5q7 0 17 5l225 160q12 8 12 21q0 16 -12 23zM372 344v245l177 -121zM447 126h-293q-18 0 -28 9.5t-10 27.5v579q0 18 10 28t28 10h577q17 0 27 -10t10 -28v-300q0 -8 7 -14.5t16 -6.5t16.5 6.5
t7.5 14.5v300q0 35 -24.5 59.5t-59.5 24.5h-580q-33 0 -57 -24t-24 -57v-582q0 -34 23.5 -58t57.5 -24h294q8 0 15.5 6.5t7.5 14.5q0 9 -6.5 16.5t-14.5 7.5zM744.5 361q-87.5 0 -148.5 -61t-61 -148.5t61 -148.5t148.5 -61t148.5 61t61 148.5t-61 148.5t-148.5 61zM745 -12
q-68 0 -115.5 47.5t-47.5 115.5t47.5 115.5t115.5 47.5t115.5 -47.5t47.5 -115.5t-47.5 -115.5t-115.5 -47.5zM810 142l-42 23v58q0 11 -6.5 17.5t-17 6.5t-17 -6.5t-6.5 -17.5v-72q0 -15 12 -21l54 -30q4 -2 11 -2q13 0 21 11q9 22 -9 33z" />
    <glyph glyph-name="keji" unicode="&#xe6ad;" 
d="M692 -52h-360l55 230h250zM540 760v32q0 11 -8 19.5t-20 8.5t-20 -8.5t-8 -19.5v-32q-113 -10 -191 -95.5t-78 -200.5v-84h594v84q0 115 -78 200t-191 96zM811 174h-598q-50 0 -86 36t-36 86t36 86t86 36h598q50 0 86 -36t36 -86t-36 -86t-86 -36zM256 295zM216 295
q0 -17 12 -29t28.5 -12t28.5 12t12 29t-12 29t-28.5 12t-28.5 -12t-12 -29zM768 295zM728 295q0 -17 12 -29t28.5 -12t28.5 12t12 29t-12 29t-28.5 12t-28.5 -12t-12 -29z" />
    <glyph glyph-name="zhuti" unicode="&#xe506;" 
d="M512 831q-68 0 -127.5 -16.5t-104.5 -44t-81.5 -64.5t-61 -78t-41.5 -84.5t-24.5 -83t-7.5 -75t7 -75t23.5 -83.5t40.5 -85t60 -78.5t79.5 -65.5t102.5 -44.5t125 -16.5q4 0 9.5 0.5t19 4t24 10.5t19.5 21.5t9 34.5q0 24 -6 38.5t-12.5 19.5t-12 15.5t-5.5 27.5
q0 35 18 55t35 20q1 0 20 -1t38.5 -1t44.5 1.5t49.5 5.5t41.5 11q27 10 53.5 28.5t53 47t43 70t16.5 88.5q0 27 -7.5 59.5t-24.5 70.5t-41.5 75.5t-61.5 72t-81 61t-104.5 42.5t-127.5 16zM239 384q-32 0 -55 23t-23 55t23 55t55 23t55 -23t23 -55t-23 -55t-55 -23z
M385.5 576q-32.5 0 -55 23t-22.5 55.5t22.5 55t55 22.5t55 -22.5t22.5 -55t-22.5 -55.5t-55 -23zM635 576q-32 0 -55 23t-23 55.5t23 55t55 22.5t55 -22.5t23 -55t-23 -55.5t-55 -23zM783 384q-32 0 -55 23t-23 55t23 55t55 23t55 -23t23 -55t-23 -55t-55 -23z" />
    <glyph glyph-name="liuliang" unicode="&#xe695;" 
d="M152 447h180v-358h-180v358zM420 806h180v-717h-180v717zM689 679h180v-590h-180v590zM153 25h-90v-89h897v89h-807z" />
  </font>
</defs>
</svg>
